<svg width="52" height="46" viewBox="0 0 52 46" fill="none" xmlns="http://www.w3.org/2000/svg">
<g id="icons8-&#208;&#183;&#208;&#176;&#208;&#188;&#208;&#190;&#208;&#186;-500 1" clip-path="url(#clip0_4_103)">
<path id="Vector" d="M26 2.73303C19.0978 2.73303 13.52 7.61898 13.52 13.665V18.22H9.36001C7.59282 18.22 6.24001 19.405 6.24001 20.953V42.817C6.24001 44.365 7.59282 45.55 9.36001 45.55H42.64C44.4072 45.55 45.76 44.365 45.76 42.817V20.953C45.76 19.405 44.4072 18.22 42.64 18.22H38.48V13.665C38.48 7.61898 32.9022 2.73303 26 2.73303ZM26 4.55503C31.7891 4.55503 36.4 8.59404 36.4 13.665V18.22H15.6V13.665C15.6 8.59404 20.2109 4.55503 26 4.55503ZM26 27.33C27.7672 27.33 29.12 28.515 29.12 30.063C29.12 30.8815 28.7056 31.6003 28.08 32.0558V34.618C28.08 35.6216 27.1456 36.44 26 36.44C24.8544 36.44 23.92 35.6216 23.92 34.618V32.0558C23.2944 31.6003 22.88 30.8815 22.88 30.063C22.88 28.515 24.2328 27.33 26 27.33Z" fill="white"/>
</g>
<defs>
<clipPath id="clip0_4_103">
<rect width="52" height="45.55" fill="white"/>
</clipPath>
</defs>
</svg>
