<svg width="20" height="18" viewBox="0 0 20 18" fill="none" xmlns="http://www.w3.org/2000/svg">
<g id="xrp-xrp-logo 2" clip-path="url(#clip0_721_107)">
<g id="Layer 2">
<g id="Layer 1">
<path id="Vector" d="M17.0707 0H19.9613L13.9457 6.47321C11.7672 8.81618 8.23516 8.81618 6.05508 6.47321L0.0371094 0H2.93008L7.50039 4.91731C8.16628 5.63056 9.06368 6.0304 9.99863 6.0304C10.9336 6.0304 11.831 5.63056 12.4969 4.91731L17.0707 0Z" fill="white"/>
<path id="Vector_2" d="M2.89258 18H0L6.05469 11.4869C8.2332 9.14392 11.7652 9.14392 13.9453 11.4869L20 18H17.1094L12.5 13.0428C11.8341 12.3295 10.9367 11.9297 10.0018 11.9297C9.06681 11.9297 8.16941 12.3295 7.50352 13.0428L2.89258 18Z" fill="white"/>
</g>
</g>
</g>
<defs>
<clipPath id="clip0_721_107">
<rect width="20" height="18" fill="white"/>
</clipPath>
</defs>
</svg>
