<svg width="28" height="42" viewBox="0 0 28 42" fill="none" xmlns="http://www.w3.org/2000/svg">
<path id="Vector" d="M13.985 0.372807C13.8119 0.375429 13.643 0.422263 13.4971 0.508074C13.3513 0.593885 13.2343 0.715289 13.1593 0.858713L0.159046 19.6381C0.13761 19.6671 0.11813 19.6974 0.100717 19.7286L0.0988937 19.7303C0.0853791 19.7554 0.0732128 19.7811 0.0624377 19.8073C0.0400366 19.861 0.0235485 19.9166 0.0132221 19.9732C0.00277674 20.0297 -0.00149769 20.0869 0.000462445 20.1441V20.1458C0.00140236 20.1738 0.0038351 20.2018 0.00775276 20.2296C0.00890771 20.2352 0.0101234 20.2408 0.0113993 20.2463C0.0188835 20.2889 0.0298516 20.3309 0.0442097 20.372C0.0465192 20.3798 0.0489504 20.3877 0.0515018 20.3955V20.3971C0.0616245 20.4239 0.0731824 20.4502 0.0861341 20.4759V20.4776C0.0993986 20.5028 0.113999 20.5274 0.129881 20.5513V20.553C0.145625 20.5772 0.162659 20.6007 0.18092 20.6233C0.189783 20.6336 0.198899 20.6436 0.208262 20.6535C0.218825 20.666 0.229766 20.6783 0.241071 20.6903C0.261252 20.7114 0.282544 20.7315 0.30487 20.7507L0.306693 20.7523C0.352195 20.7902 0.40165 20.8239 0.45434 20.8529L0.456163 20.8545C0.461002 20.8568 0.465863 20.8591 0.470745 20.8613L0.472568 20.8629L13.4199 27.6639C13.5839 27.7829 13.7865 27.8479 13.9953 27.8485C14.2042 27.8491 14.4072 27.7853 14.5719 27.6673L27.5084 20.8713C27.5151 20.868 27.5218 20.8647 27.5284 20.8613C27.5489 20.8502 27.569 20.8385 27.5886 20.8261C27.5947 20.8222 27.6008 20.8183 27.6068 20.8143C27.6111 20.811 27.6153 20.8077 27.6195 20.8043C27.6389 20.7921 27.6578 20.7792 27.6761 20.7657L27.6797 20.7624C27.6834 20.7596 27.687 20.7568 27.6906 20.754C27.7103 20.7375 27.7291 20.7201 27.7471 20.7021C27.7684 20.6812 27.7884 20.6594 27.8073 20.6367C27.8255 20.6146 27.8425 20.5917 27.8583 20.568L27.8602 20.5664C27.8608 20.5647 27.8614 20.563 27.862 20.5613C27.8777 20.5391 27.8923 20.5161 27.9057 20.4926V20.491C27.9163 20.4712 27.926 20.4511 27.9349 20.4306C27.9374 20.4245 27.9398 20.4184 27.9422 20.4122C27.9447 20.4055 27.9471 20.3988 27.9495 20.3921C27.9563 20.3728 27.9624 20.3532 27.9677 20.3335L27.9695 20.3301C27.9701 20.3284 27.9707 20.3268 27.9714 20.3251C27.9782 20.2991 27.9836 20.2728 27.9878 20.2463C27.9917 20.2247 27.9947 20.2029 27.9969 20.181C27.9969 20.1787 27.9969 20.1765 27.9969 20.1743C27.9988 20.1481 27.9994 20.1218 27.9987 20.0955C27.998 20.0787 27.9968 20.062 27.995 20.0453C27.9938 20.0273 27.992 20.0095 27.9896 19.9916V19.99C27.989 19.9872 27.9884 19.9844 27.9878 19.9816C27.9834 19.9574 27.9779 19.9333 27.9714 19.9095V19.9062C27.9656 19.8847 27.9589 19.8635 27.9513 19.8425C27.9489 19.8364 27.9465 19.8302 27.944 19.8241C27.9411 19.8174 27.938 19.8107 27.9349 19.804C27.9271 19.7847 27.9186 19.7657 27.9094 19.747L27.9076 19.7453C27.907 19.7437 27.9063 19.742 27.9057 19.7403C27.8924 19.7162 27.8778 19.6928 27.862 19.6699C27.8602 19.6671 27.8584 19.6644 27.8565 19.6616C27.8553 19.6593 27.8541 19.6571 27.8529 19.6549L27.8237 19.6147L14.8362 0.853686C14.7585 0.707621 14.6372 0.584867 14.4865 0.499729C14.3358 0.414591 14.1619 0.370574 13.985 0.372807ZM13.0663 4.18968V14.4021L3.3453 18.2307L13.0663 4.18968ZM14.9329 4.18968L24.6539 18.2307L14.9329 14.4021V4.18968ZM13.0663 16.2686V25.4991L3.02631 20.2262L13.0663 16.2686ZM14.9329 16.2686L24.9728 20.2262L14.9329 25.4991V16.2686ZM27.0727 23.5455C26.9077 23.5446 26.7455 23.5839 26.6024 23.6594L13.9996 30.2794L1.39673 23.6594C1.26102 23.5884 1.1081 23.5498 0.951965 23.5471C0.777728 23.544 0.606018 23.5858 0.456278 23.6677C0.306537 23.7497 0.184746 23.8685 0.104692 24.0108C0.024639 24.1531 -0.0104789 24.3132 0.00331502 24.4728C0.0171089 24.6325 0.0792635 24.7855 0.182742 24.9144L13.1866 41.1369C13.2678 41.269 13.3858 41.379 13.5283 41.4556C13.6709 41.5321 13.833 41.5726 13.9981 41.5727C14.1633 41.5729 14.3255 41.5328 14.4682 41.4565C14.611 41.3803 14.7292 41.2705 14.8107 41.1386L27.8164 24.9144C27.9191 24.7871 27.9814 24.6361 27.9964 24.4783C28.0115 24.3204 27.9787 24.1618 27.9017 24.0201C27.8246 23.8783 27.7064 23.7589 27.5601 23.6752C27.4138 23.5914 27.2451 23.5465 27.0727 23.5455ZM4.30592 27.1646L13.0663 31.7673V38.0941L4.30592 27.1646ZM23.6932 27.1646L14.9329 38.0941V31.7673L23.6932 27.1646Z" fill="white"/>
</svg>
