<svg width="198" height="198" viewBox="0 0 198 198" fill="none" xmlns="http://www.w3.org/2000/svg">
<circle cx="99" cy="99" r="91.5" stroke="white" stroke-width="15"/>
<path d="M52 60L80.6736 34.8232C87.8401 28.5306 98.4527 28.1737 106.026 33.9704L121.554 45.8561C128.629 51.2715 138.433 51.3539 145.598 46.058L168 29.5" stroke="white" stroke-width="15"/>
<path d="M157 113L127.55 86.7053C120.296 80.2285 109.435 79.9082 101.812 85.9463L76.6095 105.908C69.4765 111.558 59.4287 111.681 52.1599 106.207L34.1402 92.6365C27.9508 87.9753 19.626 87.3085 12.7735 90.9251L6 94.5" stroke="white" stroke-width="15"/>
<path d="M179 155.5L161.99 144.355C154.822 139.659 145.459 140.051 138.709 145.33L122.908 157.687C115.863 163.197 106.015 163.359 98.7918 158.084L79.3602 143.892C71.8339 138.396 61.5087 138.826 54.4658 144.93L29 167" stroke="white" stroke-width="15"/>
</svg>
